<svg xmlns="http://www.w3.org/2000/svg" xmlns:se="http://svg-edit.googlecode.com"
     xmlns:xlink="http://www.w3.org/1999/xlink" xmlns:dc="http://purl.org/dc/elements/1.1/"
     xmlns:cc="http://creativecommons.org/ns#" xmlns:rdf="http://www.w3.org/1999/02/22-rdf-syntax-ns#"
     xmlns:inkscape="http://www.inkscape.org/namespaces/inkscape" width="100" height="100">
    <title>my vector image
    </title>                                    <!-- Created with Vector Paint - http://www.vectorpaint.yaks.com/ https://chrome.google.com/webstore/detail/hnbpdiengicdefcjecjbnjnoifekhgdo -->
    <rect id="backgroundrect" width="100%" height="100%" x="0" y="0" fill="#FFFFFF" stroke="none"/>
    <g class="currentLayer">
        <title>Layer 1</title>
        <path fill="#4a90d6" stroke="#dadada" stroke-width="2" stroke-linejoin="round" stroke-dashoffset=""
              fill-rule="nonzero" marker-start="" marker-mid="" marker-end="" id="svg_3"
              d="M50.00000002855097,1.041663045426134 C23.823699082796054,1.041663045426134 2.604166224417156,22.960742346943334 2.604166224417156,50.00000000077188 C2.604166224417156,77.03925765458337 23.823699082796054,98.9583369561002 50.00000002855097,98.9583369561002 C76.1763009743405,98.9583369561002 97.39583383271759,77.03925765458337 97.39583383271759,50.00000000077188 C97.39583383271759,22.960742346943334 76.1763009743405,1.041663045426134 50.00000002855097,1.041663045426134 zM65.42141863733275,20.946356389939524 C68.46722218577963,20.946356389939524 70.92604003966608,25.941898821800493 70.92604003966608,32.102955536489844 S68.46070012249436,43.26292322143476 65.42141863733275,43.26292322143476 C62.382137152170685,43.26292322143476 59.91679723499914,38.2673807895726 59.91679723499914,32.10632407488447 S62.385398183794344,20.946356389939524 65.42141863733275,20.946356389939524 zM34.033989136537855,20.946356389939524 C37.07327062166735,20.946356389939524 39.53861053883895,25.941898821800493 39.53861053883895,32.102955536489844 S37.07653165329356,43.26292322143476 34.033989136537855,43.26292322143476 S28.52936773417173,38.2673807895726 28.52936773417173,32.10632407488447 S30.994707651343333,20.946356389939524 34.033989136537855,20.946356389939524 zM50.06848169291243,83.68538389736992 C40.69953780142248,83.68538389736992 31.92736269936512,77.76686194674039 24.374813429345068,67.47934570472154 C32.1915062619031,72.74773974616329 40.74845327596631,75.68510522193546 49.72607337107422,75.68510522193546 C59.258068844453476,75.68510522193546 68.31721473048827,72.38393760005022 76.51544826455506,66.47552126458945 C68.80310844433478,77.39295418549358 59.750484621516705,83.68538389736992 50.06848169291243,83.68538389736992 z"
              style="color: rgb(0, 0, 0);" class="" stroke-opacity="1"/>
    </g>
</svg>