<svg xmlns="http://www.w3.org/2000/svg" xmlns:se="http://svg-edit.googlecode.com"
     xmlns:xlink="http://www.w3.org/1999/xlink" xmlns:dc="http://purl.org/dc/elements/1.1/"
     xmlns:cc="http://creativecommons.org/ns#" xmlns:rdf="http://www.w3.org/1999/02/22-rdf-syntax-ns#"
     xmlns:inkscape="http://www.inkscape.org/namespaces/inkscape" width="100" height="100">
    <title>my vector image
    </title>                                    <!-- Created with Vector Paint - http://www.vectorpaint.yaks.com/ https://chrome.google.com/webstore/detail/hnbpdiengicdefcjecjbnjnoifekhgdo -->
    <rect id="backgroundrect" width="100%" height="100%" x="0" y="0" fill="#FFFFFF" stroke="none" class="" style=""
          opacity="0"/>
    <g class="currentLayer">
        <title>Layer 1</title>
        <path fill="#242424" stroke="#b6b6b6" stroke-width="2" stroke-linejoin="round" stroke-dashoffset=""
              fill-rule="nonzero" marker-start="" marker-mid="" marker-end="" id="svg_2"
              d="M37.03619665971279,81.53767 C41.16094665971279,77.4682 44.17712665971279,72.31487 46.70441665971279,67.09329 C48.24827665971279,65.01068 46.786626659712795,63.18872 44.683786659712794,64.95473 C39.27953665971279,68.64375 31.923106659712793,69.90882 26.071876659712792,66.54324 C19.457296659712792,63.04634 16.474466659712792,54.73109 17.97525665971279,47.48568 C18.92568665971279,40.14309 24.152876659712792,34.38767 29.828366659712792,30.25339 C36.34790665971279,25.48529 43.38820665971279,21.39208 49.346686659712795,15.87083 C51.83461665971279,15.92182 53.70700665971279,19.91327 56.38455665971279,20.96949 C63.49417665971279,26.38342 71.9197266597128,30.36852 77.51834665971279,37.60795 C80.34686665971279,41.73305 81.9589566597128,46.81261 82.1389366597128,51.83383 C81.2771366597128,58.64297 77.30581665971279,65.82407 70.45721665971278,67.76318 C64.5368166597128,69.59459 58.17895665971279,66.73866 53.01973665971279,63.78381 C52.38956665971279,63.64554 51.678146659712795,65.65045 52.59422665971279,67.09731 C55.67856665971279,73.56844 57.72464665971279,76.66079 62.61888665971279,81.91498 C62.90655665971279,82.57885 65.1626566597128,84.1539 63.9619566597128,84.12887 C53.912656659712795,84.12887 43.863386659712795,84.12887 33.81407665971279,84.12887 C34.88808665971279,83.26515 35.96214665971279,82.4014 37.03619665971279,81.53767 L37.03619665971279,81.53767 z"
              style="color: rgb(0, 0, 0);" class="" stroke-opacity="1" fill-opacity="1"/>
    </g>
</svg>